<svg width="155" height="34" viewBox="0 0 155 34" fill="none" xmlns="http://www.w3.org/2000/svg">
<path d="M24.8417 33.0603C19.3779 33.8167 13.7834 33.8083 8.04568 32.9888C4.1068 32.4257 1.05259 29.2951 0.517572 25.3618C-0.198589 20.0671 -0.160674 14.6462 0.563911 9.09935C1.10314 4.96859 4.42275 1.73289 8.58069 1.34629C13.7834 0.86304 19.1251 0.888253 24.5848 1.40512C28.7596 1.80013 32.075 5.04423 32.5889 9.196C33.284 14.7933 33.1871 20.1469 32.4962 25.3703C31.9696 29.3581 28.8354 32.5056 24.8417 33.0603Z" fill="#121212"/>
<path d="M21.8431 21.7137L21.9779 16.6207L20.2928 16.5745L20.158 21.7558C18.5993 22.1634 17.4492 23.5711 17.4492 25.2562C17.4492 27.2564 19.0753 28.8785 21.0806 28.8785C23.0858 28.8785 24.7119 27.2564 24.7119 25.2562C24.7077 23.5165 23.4818 22.0667 21.8431 21.7137ZM21.0806 27.1472C20.0316 27.1472 19.1849 26.2983 19.1849 25.2562C19.1849 24.2141 20.0358 23.3652 21.0806 23.3652C22.1253 23.3652 22.9763 24.2141 22.9763 25.2562C22.9763 26.2983 22.1253 27.1472 21.0806 27.1472Z" fill="white"/>
<path d="M18.0555 14.5658L17.7016 12.9227L11.9428 14.1582C11.3488 12.9647 10.1187 12.1411 8.69483 12.1411C6.68958 12.1411 5.06348 13.7632 5.06348 15.7634C5.06348 17.7637 6.68958 19.3857 8.69483 19.3857C10.6874 19.3857 12.3051 17.7805 12.322 15.797L18.0555 14.5658ZM8.69062 17.6544C7.64165 17.6544 6.7949 16.8056 6.7949 15.7634C6.7949 14.7213 7.64587 13.8724 8.69062 13.8724C9.73537 13.8724 10.5863 14.7213 10.5863 15.7634C10.5863 16.8056 9.73537 17.6544 8.69062 17.6544Z" fill="white"/>
<path d="M21.5855 8.22925C19.0241 8.22925 16.9473 10.3009 16.9473 12.8559C16.9473 15.4108 19.0241 17.4825 21.5855 17.4825C24.1468 17.4825 26.2236 15.4108 26.2236 12.8559C26.2236 10.3009 24.1468 8.22925 21.5855 8.22925ZM21.5855 15.9235C19.8877 15.9235 18.5144 14.5536 18.5144 12.8601C18.5144 11.1666 19.8877 9.79667 21.5855 9.79667C23.2832 9.79667 24.6565 11.1666 24.6565 12.8601C24.6565 14.5536 23.279 15.9235 21.5855 15.9235ZM21.5855 14.251C20.8145 14.251 20.191 13.6291 20.191 12.8601C20.191 12.0911 20.8145 11.4691 21.5855 11.4691C22.3564 11.4691 22.9799 12.0911 22.9799 12.8601C22.9799 13.6291 22.3522 14.251 21.5855 14.251Z" fill="#FBB31A"/>
<path d="M50.1445 7V22L49.7812 25H46.6055V7H50.1445ZM58.1133 18.7656C58.1133 20.0312 57.9336 21.1523 57.5742 22.1289C57.2148 23.1055 56.6719 23.8672 55.9453 24.4141C55.2188 24.9609 54.3008 25.2344 53.1914 25.2344C52.1445 25.2344 51.2891 24.9531 50.625 24.3906C49.9688 23.8203 49.457 23.0508 49.0898 22.082C48.7227 21.1055 48.4609 20.0078 48.3047 18.7891V18.5078C48.4609 17.2969 48.7188 16.207 49.0781 15.2383C49.4453 14.2695 49.957 13.5039 50.6133 12.9414C51.2773 12.3711 52.1289 12.0859 53.168 12.0859C54.2852 12.0859 55.207 12.3633 55.9336 12.918C56.668 13.4727 57.2148 14.2344 57.5742 15.2031C57.9336 16.1719 58.1133 17.2773 58.1133 18.5195V18.7656ZM54.5742 18.5195C54.5742 17.8789 54.5117 17.2891 54.3867 16.75C54.2617 16.2031 54.0312 15.7695 53.6953 15.4492C53.3672 15.1211 52.8906 14.957 52.2656 14.957C51.8281 14.957 51.4531 15.0273 51.1406 15.168C50.8281 15.3086 50.5703 15.5156 50.3672 15.7891C50.1719 16.0547 50.0234 16.3789 49.9219 16.7617C49.8281 17.1445 49.7773 17.5703 49.7695 18.0391V19.2695C49.7852 19.8945 49.8789 20.4414 50.0508 20.9102C50.2227 21.3711 50.4883 21.7305 50.8477 21.9883C51.2148 22.2461 51.6953 22.375 52.2891 22.375C52.9141 22.375 53.3906 22.2227 53.7188 21.918C54.0469 21.6055 54.2695 21.1797 54.3867 20.6406C54.5117 20.0938 54.5742 19.4688 54.5742 18.7656V18.5195ZM67.5703 12.3203H71.1094V25H67.793L67.5703 21.9414V12.3203ZM68.9883 19.293C68.9883 20.4336 68.8125 21.4531 68.4609 22.3516C68.1172 23.2422 67.5938 23.9453 66.8906 24.4609C66.1953 24.9766 65.3164 25.2344 64.2539 25.2344C63.0039 25.2344 61.9883 24.8711 61.207 24.1445C60.4336 23.4102 60.0469 22.2031 60.0469 20.5234V12.3203H63.5859V20.5469C63.5859 20.9766 63.6562 21.3281 63.7969 21.6016C63.9453 21.8672 64.1484 22.0625 64.4062 22.1875C64.6719 22.3047 64.9727 22.3633 65.3086 22.3633C65.9883 22.3633 66.5195 22.2305 66.9023 21.9648C67.293 21.6992 67.5664 21.3359 67.7227 20.875C67.8867 20.4141 67.9688 19.8945 67.9688 19.3164L68.9883 19.293ZM80.4023 21.4609C80.4023 21.2266 80.332 21.0234 80.1914 20.8516C80.0586 20.6797 79.8086 20.5195 79.4414 20.3711C79.0742 20.2227 78.543 20.0742 77.8477 19.9258C76.9961 19.7383 76.2266 19.4844 75.5391 19.1641C74.8594 18.8438 74.3242 18.4297 73.9336 17.9219C73.543 17.4062 73.3477 16.7852 73.3477 16.0586C73.3477 15.3477 73.5508 14.6914 73.957 14.0898C74.3633 13.4883 74.9453 13.0039 75.7031 12.6367C76.4688 12.2695 77.3828 12.0859 78.4453 12.0859C79.5547 12.0859 80.5117 12.2617 81.3164 12.6133C82.1211 12.9648 82.7383 13.4492 83.168 14.0664C83.5977 14.6836 83.8125 15.3906 83.8125 16.1875H80.2734C80.2734 15.7109 80.125 15.3242 79.8281 15.0273C79.5391 14.7227 79.0742 14.5703 78.4336 14.5703C78.0898 14.5703 77.7891 14.6289 77.5312 14.7461C77.2734 14.8633 77.0742 15.0195 76.9336 15.2148C76.8008 15.4023 76.7344 15.625 76.7344 15.8828C76.7344 16.1172 76.8086 16.3242 76.957 16.5039C77.1055 16.6836 77.3477 16.8398 77.6836 16.9727C78.0195 17.1055 78.4688 17.2227 79.0312 17.3242C79.9297 17.4961 80.7422 17.7344 81.4688 18.0391C82.1953 18.3359 82.7734 18.7461 83.2031 19.2695C83.6328 19.7852 83.8477 20.4727 83.8477 21.332C83.8477 22.082 83.625 22.7539 83.1797 23.3477C82.7422 23.9336 82.1172 24.3945 81.3047 24.7305C80.5 25.0664 79.5508 25.2344 78.457 25.2344C77.2617 25.2344 76.2539 25.0195 75.4336 24.5898C74.6133 24.1602 73.9922 23.6172 73.5703 22.9609C73.1484 22.2969 72.9375 21.6211 72.9375 20.9336H76.2891C76.3125 21.3555 76.4258 21.6992 76.6289 21.9648C76.8398 22.2305 77.1094 22.4258 77.4375 22.5508C77.7734 22.6758 78.1406 22.7383 78.5391 22.7383C78.9453 22.7383 79.2852 22.6875 79.5586 22.5859C79.8398 22.4766 80.0508 22.3281 80.1914 22.1406C80.332 21.9453 80.4023 21.7188 80.4023 21.4609ZM93.0234 12.3203H96.8086L91.7461 26.8984C91.6367 27.2109 91.4883 27.5508 91.3008 27.918C91.1133 28.293 90.8633 28.6484 90.5508 28.9844C90.2461 29.3203 89.8555 29.5938 89.3789 29.8047C88.9102 30.0156 88.3359 30.1211 87.6562 30.1211C87.4375 30.1211 87.2461 30.1133 87.082 30.0977C86.9258 30.082 86.7734 30.0547 86.625 30.0156C86.4766 29.9844 86.3086 29.9453 86.1211 29.8984V27.2266C86.207 27.2266 86.293 27.2266 86.3789 27.2266C86.4727 27.2344 86.5586 27.2383 86.6367 27.2383C87.3008 27.2383 87.7852 27.1367 88.0898 26.9336C88.3945 26.7305 88.625 26.4062 88.7812 25.9609L89.707 23.5352L93.0234 12.3203ZM91.1484 21.2852L91.6289 25.1875L89.2383 25.3516L84.7031 12.3203H88.5117L91.1484 21.2852ZM101.555 25H98.0039V7H101.555V25ZM100.102 18.2852C100.102 17.082 100.297 16.0156 100.688 15.0859C101.086 14.1562 101.645 13.4258 102.363 12.8945C103.082 12.3555 103.922 12.0859 104.883 12.0859C105.719 12.0859 106.449 12.25 107.074 12.5781C107.707 12.8984 108.199 13.4219 108.551 14.1484C108.91 14.8672 109.09 15.832 109.09 17.043V25H105.539V17.0195C105.539 16.4883 105.461 16.0742 105.305 15.7773C105.156 15.4727 104.934 15.2617 104.637 15.1445C104.348 15.0195 103.992 14.957 103.57 14.957C103.102 14.957 102.707 15.0391 102.387 15.2031C102.066 15.3594 101.805 15.5859 101.602 15.8828C101.406 16.1797 101.266 16.5312 101.18 16.9375C101.094 17.3359 101.051 17.7695 101.051 18.2383L100.102 18.2852ZM119.016 12.3203H122.555V25H119.238L119.016 21.9414V12.3203ZM120.434 19.293C120.434 20.4336 120.258 21.4531 119.906 22.3516C119.562 23.2422 119.039 23.9453 118.336 24.4609C117.641 24.9766 116.762 25.2344 115.699 25.2344C114.449 25.2344 113.434 24.8711 112.652 24.1445C111.879 23.4102 111.492 22.2031 111.492 20.5234V12.3203H115.031V20.5469C115.031 20.9766 115.102 21.3281 115.242 21.6016C115.391 21.8672 115.594 22.0625 115.852 22.1875C116.117 22.3047 116.418 22.3633 116.754 22.3633C117.434 22.3633 117.965 22.2305 118.348 21.9648C118.738 21.6992 119.012 21.3359 119.168 20.875C119.332 20.4141 119.414 19.8945 119.414 19.3164L120.434 19.293ZM128.59 7V22L128.227 25H125.051V7H128.59ZM136.559 18.7656C136.559 20.0312 136.379 21.1523 136.02 22.1289C135.66 23.1055 135.117 23.8672 134.391 24.4141C133.664 24.9609 132.746 25.2344 131.637 25.2344C130.59 25.2344 129.734 24.9531 129.07 24.3906C128.414 23.8203 127.902 23.0508 127.535 22.082C127.168 21.1055 126.906 20.0078 126.75 18.7891V18.5078C126.906 17.2969 127.164 16.207 127.523 15.2383C127.891 14.2695 128.402 13.5039 129.059 12.9414C129.723 12.3711 130.574 12.0859 131.613 12.0859C132.73 12.0859 133.652 12.3633 134.379 12.918C135.113 13.4727 135.66 14.2344 136.02 15.2031C136.379 16.1719 136.559 17.2773 136.559 18.5195V18.7656ZM133.02 18.5195C133.02 17.8789 132.957 17.2891 132.832 16.75C132.707 16.2031 132.477 15.7695 132.141 15.4492C131.812 15.1211 131.336 14.957 130.711 14.957C130.273 14.957 129.898 15.0273 129.586 15.168C129.273 15.3086 129.016 15.5156 128.812 15.7891C128.617 16.0547 128.469 16.3789 128.367 16.7617C128.273 17.1445 128.223 17.5703 128.215 18.0391V19.2695C128.23 19.8945 128.324 20.4414 128.496 20.9102C128.668 21.3711 128.934 21.7305 129.293 21.9883C129.66 22.2461 130.141 22.375 130.734 22.375C131.359 22.375 131.836 22.2227 132.164 21.918C132.492 21.6055 132.715 21.1797 132.832 20.6406C132.957 20.0938 133.02 19.4688 133.02 18.7656V18.5195ZM145.371 21.4609C145.371 21.2266 145.301 21.0234 145.16 20.8516C145.027 20.6797 144.777 20.5195 144.41 20.3711C144.043 20.2227 143.512 20.0742 142.816 19.9258C141.965 19.7383 141.195 19.4844 140.508 19.1641C139.828 18.8438 139.293 18.4297 138.902 17.9219C138.512 17.4062 138.316 16.7852 138.316 16.0586C138.316 15.3477 138.52 14.6914 138.926 14.0898C139.332 13.4883 139.914 13.0039 140.672 12.6367C141.438 12.2695 142.352 12.0859 143.414 12.0859C144.523 12.0859 145.48 12.2617 146.285 12.6133C147.09 12.9648 147.707 13.4492 148.137 14.0664C148.566 14.6836 148.781 15.3906 148.781 16.1875H145.242C145.242 15.7109 145.094 15.3242 144.797 15.0273C144.508 14.7227 144.043 14.5703 143.402 14.5703C143.059 14.5703 142.758 14.6289 142.5 14.7461C142.242 14.8633 142.043 15.0195 141.902 15.2148C141.77 15.4023 141.703 15.625 141.703 15.8828C141.703 16.1172 141.777 16.3242 141.926 16.5039C142.074 16.6836 142.316 16.8398 142.652 16.9727C142.988 17.1055 143.438 17.2227 144 17.3242C144.898 17.4961 145.711 17.7344 146.438 18.0391C147.164 18.3359 147.742 18.7461 148.172 19.2695C148.602 19.7852 148.816 20.4727 148.816 21.332C148.816 22.082 148.594 22.7539 148.148 23.3477C147.711 23.9336 147.086 24.3945 146.273 24.7305C145.469 25.0664 144.52 25.2344 143.426 25.2344C142.23 25.2344 141.223 25.0195 140.402 24.5898C139.582 24.1602 138.961 23.6172 138.539 22.9609C138.117 22.2969 137.906 21.6211 137.906 20.9336H141.258C141.281 21.3555 141.395 21.6992 141.598 21.9648C141.809 22.2305 142.078 22.4258 142.406 22.5508C142.742 22.6758 143.109 22.7383 143.508 22.7383C143.914 22.7383 144.254 22.6875 144.527 22.5859C144.809 22.4766 145.02 22.3281 145.16 22.1406C145.301 21.9453 145.371 21.7188 145.371 21.4609Z" fill="#121212"/>
</svg>
